<svg width="17" height="16" viewBox="0 0 17 16" fill="currentColor" xmlns="http://www.w3.org/2000/svg"> <path fill-rule="evenodd" clip-rule="evenodd" d="M6.20005 0.800049H6.50005V0.900012C6.62149 0.991233 6.70005 1.13647 6.70005 1.30005V1.50005C6.70005 1.66363 6.62149 1.80886 6.50005 1.90009V4.58584L4.90005 2.98584V1.90009C4.7786 1.80887 4.70005 1.66363 4.70005 1.50005V1.30005C4.70005 1.13647 4.7786 0.991232 4.90005 0.900012V0.800049H5.20005H6.20005ZM4.32121 5.23542C3.70362 5.66966 3.30005 6.38773 3.30005 7.20005V14.2546C3.30005 14.7768 3.72334 15.2 4.2455 15.2H7.15459C7.67675 15.2 8.10005 14.7768 8.10005 14.2546V9.01426L4.32121 5.23542ZM8.90005 9.81426V13.2364C8.90005 13.6582 9.24194 14 9.66368 14H12.1364C12.3947 14 12.6231 13.8718 12.7613 13.6755L8.90005 9.81426ZM12.9 10.9858V7.60005C12.9 6.7045 12.3114 5.94642 11.5 5.69159V2.92312C11.6402 2.83456 11.7334 2.67818 11.7334 2.50005C11.7334 2.32192 11.6402 2.16554 11.5 2.07698V2.00005H11.2334H10.5667H10.3V2.07706C10.1598 2.16564 10.0667 2.32197 10.0667 2.50005C10.0667 2.67812 10.1598 2.83446 10.3 2.92304V5.69163C9.65825 5.89321 9.15592 6.40954 8.9739 7.05969L12.9 10.9858Z" fill="currentColor"></path> <path d="M2.5 2L14.5 14" stroke="currentColor" stroke-width="2" stroke-linecap="round"></path> </svg>