<svg width="40" height="40" viewBox="0 0 40 40" fill="none" xmlns="http://www.w3.org/2000/svg"> <path fill-rule="evenodd" clip-rule="evenodd" d="M9.36237 12.8979C7.26618 15.3454 6 18.5248 6 22H5C4.44772 22 4 22.4477 4 23C4 23.5523 4.44772 24 5 24H20.4645L9.36237 12.8979ZM22.4645 26.0001L30.9394 34.475L29.7072 35.7072C29.3167 36.0977 28.6835 36.0977 28.293 35.7072L25.5859 33.0001H16.0001C15.7917 33.0001 15.5884 32.935 15.4188 32.8138L8.41884 27.8138C7.96943 27.4928 7.86534 26.8683 8.18634 26.4188C8.50735 25.9694 9.1319 25.8653 9.58132 26.1863L14.9205 30.0001C17.2651 30.0001 22.0148 29.9987 22.0148 29.9987C23 30 23.0001 29.0001 23.0001 29.0001C23.0001 29.0001 23 28 21.9911 28.0001H16.5001C15.9478 28.0001 15.5001 27.5524 15.5001 27.0001C15.5001 26.4478 15.9478 26.0001 16.5001 26.0001H22.4645ZM27.5355 24L13.2611 9.7256C14.7974 8.88036 16.5095 8.31515 18.3286 8.09874C18.1209 7.78342 18 7.40582 18 7C18 5.89543 18.8954 5 20 5C21.1046 5 22 5.89543 22 7C22 7.40582 21.8791 7.78342 21.6714 8.09874C28.6155 8.92486 34 14.8336 34 22H35C35.5523 22 36 22.4477 36 23C36 23.5523 35.5523 24 35 24H27.5355Z" fill="currentColor"></path> <path d="M5 5L35 35" stroke="currentColor" stroke-width="2" stroke-linecap="round"></path> </svg>