<?xml version="1.0" encoding="iso-8859-1"?>
<!-- Generator: Adobe Illustrator 19.0.0, SVG Export Plug-In . SVG Version: 6.00 Build 0)  -->
<svg version="1.1" id="Capa_1" xmlns="http://www.w3.org/2000/svg" xmlns:xlink="http://www.w3.org/1999/xlink" x="0px" y="0px"
	 viewBox="0 0 480 480" style="enable-background:new 0 0 480 480;" xml:space="preserve">
<g>
	<g>
		<path d="M460.352,327.825l-147.944-87.424c-6.945-4.111-12.76-9.884-16.92-16.8l-6.864,4.12l6.696-4.392
			c-10.209-16.898-27.559-28.226-47.136-30.776c0.401-8.465,4.412-16.353,11.016-21.664l11.608-9.288
			c19.759-15.814,22.956-44.652,7.142-64.41c-8.696-10.865-21.858-17.189-35.774-17.19h-4.352
			c-25.297,0.026-45.797,20.527-45.824,45.824v18.176h16v-18.176c0.018-16.464,13.36-29.806,29.824-29.824h4.352
			c16.476,0.008,29.826,13.371,29.818,29.846c-0.004,9.049-4.116,17.607-11.178,23.266l-11.624,9.288
			c-10.42,8.322-16.668,20.792-17.096,34.12c-19.783,2.522-37.319,13.973-47.584,31.072c-4.16,6.916-9.975,12.689-16.92,16.8
			L19.648,327.825C7.494,335.044,0.032,348.122,0,362.257v29.744c0.002,4.418,3.586,7.998,8.004,7.996
			c1.422-0.001,2.818-0.38,4.044-1.1l25.416-14.896h405.072l25.416,14.896c3.811,2.236,8.713,0.959,10.948-2.852
			c0.719-1.226,1.099-2.622,1.1-4.044v-29.744C479.968,348.122,472.506,335.044,460.352,327.825z M64.8,368.001L240,265.273
			l175.24,102.728H64.8z M464,378.041l-16-9.384v-0.656h-1.128L244.048,249.106c-2.5-1.466-5.597-1.466-8.096,0L33.128,368.001H32
			v0.656l-16,9.384v-15.784c0.019-8.482,4.498-16.328,11.792-20.656l147.944-87.424c9.323-5.534,17.114-13.311,22.664-22.624
			c13.783-22.975,43.582-30.426,66.557-16.643c6.83,4.097,12.546,9.813,16.643,16.643l0.168,0.28
			c5.529,9.199,13.26,16.878,22.496,22.344l147.944,87.424c7.294,4.328,11.773,12.174,11.792,20.656V378.041z"/>
	</g>
</g>
<g>
</g>
<g>
</g>
<g>
</g>
<g>
</g>
<g>
</g>
<g>
</g>
<g>
</g>
<g>
</g>
<g>
</g>
<g>
</g>
<g>
</g>
<g>
</g>
<g>
</g>
<g>
</g>
<g>
</g>
</svg>
