<svg id="_x33_0" enable-background="new 0 0 64 64" height="512" viewBox="0 0 64 64" width="512" xmlns="http://www.w3.org/2000/svg"><g><path d="m22.991 35.109c-.024-1.008-.42-1.952-1.135-2.667l-2.856-2.856-2.856 2.856c-.708.708-1.1 1.641-1.132 2.637-.984.029-1.954.417-2.667 1.13l-2.855 2.856 2.856 2.856c.707.706 1.638 1.098 2.632 1.131.024 1.007.42 1.952 1.135 2.668l2.856 2.855 2.856-2.856c.706-.707 1.098-1.638 1.131-2.632 1.008-.024 1.952-.42 2.667-1.135l2.856-2.856-2.855-2.855c-.708-.706-1.639-1.099-2.633-1.132zm-5.991 3.891c0-1.103.897-2 2-2s2 .897 2 2-.897 2-2 2-2-.897-2-2zm.558-5.144 1.442-1.442 1.442 1.442c.354.355.558.846.558 1.348 0 .113-.013.225-.032.335-.584-.333-1.249-.539-1.968-.539-.72 0-1.386.206-1.97.54-.02-.11-.03-.223-.03-.336 0-.502.204-.993.558-1.348zm-5.241 5.208 1.441-1.441c.453-.453 1.114-.622 1.73-.499-.301.562-.488 1.195-.488 1.876 0 .728.21 1.402.552 1.991-.628.142-1.324-.017-1.793-.485zm8.093 5.242-1.442 1.441-1.441-1.441c-.36-.36-.559-.839-.559-1.348 0-.137.018-.271.046-.404.032-.018.067-.03.098-.049.565.305 1.202.495 1.888.495.693 0 1.335-.193 1.904-.504.038.15.064.304.064.462 0 .509-.198.987-.558 1.348zm3.798-3.767c-.455.455-1.136.624-1.76.49-.004-.006-.006-.013-.01-.02.348-.593.562-1.274.562-2.009 0-.672-.183-1.297-.477-1.854.6-.101 1.245.069 1.686.509l1.442 1.441z"/><path d="m58 16c-2.757 0-5 2.243-5 5v5h-13c-2.414 0-4.434 1.721-4.899 4h-.101v-13c0-2.206-1.794-4-4-4-.732 0-1.409.212-2 .556v-4.556c0-2.206-1.794-4-4-4-.732 0-1.409.212-2 .556v-.556c0-2.206-1.794-4-4-4s-4 1.794-4 4v.556c-.591-.344-1.268-.556-2-.556-2.206 0-4 1.794-4 4v12.11c-1.272-1.3-3.042-2.11-5-2.11-1.654 0-3 1.346-3 3 0 2.052.163 5.795.483 11.127.316 5.247 2.222 10.16 5.517 14.231v15.642h24v-15.701c2.202-3.393 3.528-7.277 3.888-11.299h.213c.465 2.279 2.484 4 4.899 4h16c3.86 0 7-3.14 7-7v-12c0-2.757-2.243-5-5-5zm-23 16v2h-4.764l-3.105-1.552c-.08-.04-.131-.123-.131-.212 0-.13.106-.236.236-.236zm-5.832 14.445-.168.252v14.303h-11.519c.771-1.343 2.144-2.285 3.727-2.461l1.568-.174c2.408-.268 4.224-2.297 4.224-4.719 0-2.562-2.084-4.646-4.646-4.646h-.354c-1.654 0-3 1.346-3 3s1.346 3 3 3h1v-2h-1c-.551 0-1-.449-1-1s.449-1 1-1h.354c1.459 0 2.646 1.187 2.646 2.646 0 1.402-1.051 2.576-2.444 2.731l-1.568.174c-2.597.288-4.793 2.042-5.704 4.449h-3.008c.739-2.468 2.247-4.64 4.325-6.2l-1.2-1.6c-2.582 1.936-4.395 4.689-5.186 7.8h-1.215v-14.362l-.232-.278c-3.163-3.795-4.991-8.413-5.289-13.353-.313-5.217-.479-9.024-.479-11.007 0-.551.449-1 1-1 2.757 0 5 2.243 5 5v8h2v-25c0-1.103.897-2 2-2s2 .897 2 2v19h2v-23c0-1.103.897-2 2-2s2 .897 2 2v23h2v-19c0-1.103.897-2 2-2s2 .897 2 2v19h2v-11c0-1.103.897-2 2-2s2 .897 2 2v13h-5.764c-1.233 0-2.236 1.003-2.236 2.236 0 .852.474 1.619 1.236 2l3.106 1.553c.276.138.585.211.894.211h2.646c-.364 3.728-1.631 7.32-3.714 10.445zm28.832-28.445c1.654 0 3 1.346 3 3v8.026c-.838-.635-1.87-1.026-3-1.026s-2.162.391-3 1.026v-8.026c0-1.654 1.346-3 3-3zm-21 17v-4c0-1.654 1.346-3 3-3h1v10h-1c-1.654 0-3-1.346-3-3zm19 3h-13v-10h10v5c0 1.654 1.346 3 3 3s3-1.346 3-3v-1h-2v1c0 .551-.449 1-1 1s-1-.449-1-1c0-1.654 1.346-3 3-3s3 1.346 3 3c0 2.757-2.243 5-5 5z"/></g></svg>