<svg width="16" height="16" viewBox="0 0 16 16" fill="none" xmlns="http://www.w3.org/2000/svg"> <path d="M13.3348 8.66369C13.8871 9.62028 13.3654 10.9554 12.1697 11.6457C10.974 12.3361 9.55692 12.1203 9.00464 11.1637C8.45235 10.2071 8.97397 8.872 10.1697 8.18164C11.3654 7.49128 12.7825 7.70711 13.3348 8.66369Z" fill="#373941"></path> <path d="M5.55103 4.07031L12.551 2" stroke="#373941" stroke-width="2" stroke-linecap="round"></path> <path d="M12.551 2V9.5" stroke="#373941" stroke-width="2"></path> <path d="M5.54639 4V11.5" stroke="#373941" stroke-width="2"></path> <path d="M6.33013 10.6637C6.88241 11.6203 6.3608 12.9554 5.16506 13.6457C3.96933 14.3361 2.55228 14.1203 2 13.1637C1.44772 12.2071 1.96933 10.872 3.16506 10.1816C4.3608 9.49128 5.77784 9.70711 6.33013 10.6637Z" fill="#373941"></path> </svg>