<svg id="Layer_1_1_" enable-background="new 0 0 64 64" height="512" viewBox="0 0 64 64" width="512" xmlns="http://www.w3.org/2000/svg"><path d="m46 39.208v-2.711l3.321-1.82c.057-.031.11-.067.16-.109 1.601-1.335 2.519-3.295 2.519-5.378v-2.19h.5c1.93 0 3.5-1.57 3.5-3.5 0-1.131-.548-2.128-1.384-2.769.246-1.098.384-2.387.384-3.731 0-8.271-6.729-15-15-15-3.816 0-7.392 1.425-10.171 4h-2.829c-3.309 0-6 2.691-6 6 0 1.538.587 2.939 1.542 4.002-1.37.009-2.558.939-2.891 2.271l-.431 1.727h-3.22v-.266c0-1.483-1.107-2.76-2.575-2.969l-3.856-.551c-1.282-.186-2.529.471-3.107 1.628l-2.145 4.289c-.208.414-.317.878-.317 1.341v12.457c0 1.604.624 3.11 1.758 4.243l3.07 3.072c.756.754 1.172 1.758 1.172 2.827v14.929c0 .552.447 1 1 1h9 40c.524 0 .96-.405.997-.929l1.003-14.071c0-3.531-10.627-6.512-16-7.792zm-14.479 2.76 3.205 11.218-1.617-.18-.221 1.987 17.112 1.902v3.105h-21.161l-2.342-13.271c-.36-2.052-1.213-4.018-2.464-5.686-.899-1.198-2.082-2.186-3.422-2.855l-3.206-1.603c-.257-.129-.436-.361-.51-.634l-.04-.178-.581-4.647c-.036-.289.05-.568.242-.786.148-.168.347-.256.56-.298.512 3.919 3.866 6.958 7.924 6.958 4.317 0 7.836-3.439 7.986-7.72.111.075.217.159.31.262.316.35.465.801.418 1.27l-.603 6.025c-.046.457-.25.888-.573 1.211-1.024 1.024-1.414 2.525-1.017 3.92zm-12.585 3.148-1.386-6.223 2.166 1.083c1.063.532 2.003 1.315 2.717 2.267.13.174.239.362.359.543-1.819.792-3.089 1.552-3.856 2.33zm.064-16.116c0-3.309 2.691-6 6-6s6 2.691 6 6-2.691 6-6 6-6-2.691-6-6zm13.755-1.928c-.542-2.179-1.973-4.009-3.891-5.072h9.136v14h-2.795l.499-4.989c.102-1.024-.235-2.048-.926-2.811-.535-.591-1.25-.98-2.023-1.128zm3.245 10.928h3 2.702c.789 0 1.571-.159 2.298-.457v4.024c-2.281 2-5.719 2-8 0zm14-8.81c0 1.457-.629 2.83-1.729 3.781l-4.614 2.529c-.598.328-1.273.5-1.955.5h-1.702v-15c0-.552-.447-1-1-1h-8.22l-.432-1.728c-.024-.095-.061-.182-.093-.272h15.393l4.352 3.48zm2.5-4.19h-.5v-3h.5c.827 0 1.5.673 1.5 1.5s-.673 1.5-1.5 1.5zm-12.5-21c7.168 0 13 5.832 13 13 0 1.088-.096 2.129-.271 3.023-.077-.005-.151-.023-.229-.023h-1.149l-4.351-3.481v-4.519c0-3.309-2.691-6-6-6h-7.912c2.051-1.295 4.422-2 6.912-2zm-13 4h14c2.206 0 4 1.794 4 4v4h-17.562-.438c-2.206 0-4-1.794-4-4s1.794-4 4-4zm-5.409 10.758c.112-.446.511-.758.971-.758h4.438.438c.46 0 .858.312.971.758l.311 1.242h-7.44zm-.455 3.242c-2.191 1.215-3.751 3.428-4.069 6.021-.786.053-1.525.399-2.05.993-.569.645-.834 1.504-.728 2.357l.578 4.629h-1.867v-3h-.058c.651-.636 1.058-1.52 1.058-2.5v-8.5h1zm-10.894 19.829-3.07-3.072c-.756-.755-1.172-1.759-1.172-2.828v-12.457c0-.154.036-.31.105-.447l2.145-4.289c.192-.385.604-.604 1.035-.542l3.856.551c.49.069.859.495.859.989v.266h-1-3v2h2v2h-2v2h2v2h-2v2h2v.5c0 .827-.673 1.5-1.5 1.5h-.5v2h.5c.171 0 .335-.027.5-.051v3.051c0 .552.447 1 1 1h3.303l2.722 12.217.2-.045.701 9.828h-6.926v-13.929c0-1.603-.624-3.11-1.758-4.242zm9.758 5.171c0-.009.114-.899 3.763-2.463.352.813.61 1.667.764 2.539l2.281 12.924h-5.878zm39.069 13h-7.069v-8h-2v2.883l-13.124-1.458-3.431-12.006c-.198-.696-.004-1.445.507-1.957.018-.018.031-.039.048-.057v2.595c0 .265.105.52.293.707 1.573 1.573 3.641 2.36 5.707 2.36s4.134-.787 5.707-2.36c.188-.187.293-.442.293-.707v-.732c7.471 1.836 14 4.478 14.003 5.661z"/><path d="m45 22.25c-.965 0-1.75.785-1.75 1.75s.785 1.75 1.75 1.75 1.75-.785 1.75-1.75-.785-1.75-1.75-1.75zm-.25 1.75c0-.138.112-.25.25-.25s.25.112.25.25c0 .275-.5.275-.5 0z"/><path d="m25 33c2.206 0 4-1.794 4-4s-1.794-4-4-4-4 1.794-4 4 1.794 4 4 4zm0-6c1.103 0 2 .897 2 2s-.897 2-2 2-2-.897-2-2 .897-2 2-2z"/></svg>