<svg id="Capa_1" enable-background="new 0 0 512 512" height="512" viewBox="0 0 512 512" width="512" xmlns="http://www.w3.org/2000/svg"><g><circle cx="196" cy="226" r="15"/><circle cx="346" cy="76" r="15"/><path d="m497 421h-15v-15c0-8.284-6.716-15-15-15s-15 6.716-15 15v15h-15c-8.284 0-15 6.716-15 15s6.716 15 15 15h15v15c0 8.284 6.716 15 15 15s15-6.716 15-15v-15h15c8.284 0 15-6.716 15-15s-6.716-15-15-15z"/><path d="m15 421h15v15c0 8.284 6.716 15 15 15s15-6.716 15-15v-15h15c8.284 0 15-6.716 15-15s-6.716-15-15-15h-15v-15c0-8.284-6.716-15-15-15s-15 6.716-15 15v15h-15c-8.284 0-15 6.716-15 15s6.716 15 15 15z"/><path d="m106.505 332.393c-1.765 5.43-.293 11.391 3.795 15.376l61.979 60.416-14.645 86.306c-.958 5.649 1.386 11.351 6.04 14.693 4.654 3.343 10.808 3.74 15.853 1.027l76.473-41.119 76.473 41.12c5.057 2.719 11.208 2.308 15.853-1.027 4.654-3.342 6.998-9.044 6.04-14.693l-14.645-86.306 61.979-60.416c4.088-3.985 5.56-9.946 3.795-15.376s-6.458-9.388-12.108-10.209l-85.638-12.444-36.749-74.463v-220.278c0-8.284-6.716-15-15-15s-15 6.716-15 15v220.278l-36.749 74.462-85.638 12.444c-5.65.821-10.343 4.778-12.108 10.209zm109.864 5.901c4.886-.71 9.109-3.779 11.294-8.206l28.337-57.417 28.337 57.417c2.185 4.427 6.408 7.496 11.294 8.206l63.364 9.207-45.851 44.693c-3.528 3.439-5.143 8.393-4.318 13.25l10.828 63.812-56.551-30.407c-2.218-1.192-4.66-1.789-7.104-1.789-2.443 0-4.886.596-7.104 1.789l-56.551 30.407 10.828-63.812c.824-4.858-.79-9.811-4.318-13.25l-45.851-44.693z"/><path d="m.975 125.738c-1.749 5.48-.21 11.478 3.962 15.439l32.557 30.908-7.467 43.535c-.965 5.627 1.349 11.315 5.968 14.671 4.618 3.356 10.742 3.799 15.797 1.142l39.208-20.614 39.209 20.614c5.085 2.672 11.206 2.194 15.797-1.142 4.619-3.356 6.933-9.043 5.968-14.671l-7.488-43.66 31.721-30.92c4.088-3.985 5.56-9.946 3.795-15.376s-6.458-9.388-12.108-10.209l-43.837-6.37-18.057-36.585v-57.5c0-8.284-6.716-15-15-15s-15 6.716-15 15v57.5l-18.044 36.561-44.809 6.387c-5.694.812-10.423 4.81-12.172 10.29zm69.048 11.907c4.901-.699 9.143-3.771 11.334-8.211l9.643-19.541 9.644 19.54c2.185 4.427 6.408 7.496 11.294 8.206l21.563 3.133-15.604 15.21c-3.535 3.446-5.148 8.411-4.313 13.277l3.684 21.476-19.287-10.14c-2.186-1.149-4.583-1.723-6.98-1.723s-4.795.574-6.98 1.723l-19.287 10.14 3.684-21.476c.847-4.935-.825-9.967-4.457-13.414l-15.876-15.073z"/><path d="m511.025 185.738c-1.749-5.48-6.479-9.478-12.173-10.29l-44.809-6.387-18.043-36.561v-117.5c0-8.284-6.716-15-15-15s-15 6.716-15 15v117.5l-18.056 36.585-43.837 6.37c-5.65.821-10.344 4.779-12.108 10.209s-.293 11.391 3.795 15.376l31.721 30.92-7.488 43.66c-.965 5.627 1.349 11.315 5.968 14.671 4.618 3.355 10.742 3.8 15.797 1.142l39.208-20.614 39.209 20.614c5.085 2.672 11.206 2.194 15.797-1.142 4.619-3.356 6.933-9.043 5.968-14.671l-7.467-43.535 32.557-30.908c4.171-3.961 5.71-9.958 3.961-15.439zm-62.984 30.107c-3.632 3.447-5.304 8.479-4.457 13.414l3.684 21.476-19.287-10.14c-2.186-1.149-4.583-1.723-6.98-1.723s-4.795.574-6.98 1.723l-19.287 10.14 3.684-21.476c.835-4.866-.778-9.831-4.313-13.277l-15.604-15.21 21.563-3.133c4.886-.71 9.109-3.779 11.294-8.206l9.644-19.54 9.644 19.54c2.191 4.44 6.433 7.513 11.334 8.211l21.939 3.127z"/></g></svg>