<svg id="Capa_1" enable-background="new 0 0 512 512" height="512" viewBox="0 0 512 512" width="512" xmlns="http://www.w3.org/2000/svg"><g><path d="m255.938 222c-24.813 0-45 20.187-45 45s20.187 45 45 45 45-20.187 45-45-20.188-45-45-45zm0 60c-8.271 0-15-6.729-15-15s6.729-15 15-15 15 6.729 15 15-6.73 15-15 15z"/><path d="m75.5 306h30v71h-30z"/><path d="m406.375 306h30v71h-30z"/><path d="m452 190.849v-58.849h-30v50.052l-61.063-.042v-122.143h-30v43.729c-15.764-16.103-36.652-27.166-60-30.52v-73.076h-30v73.076c-23.348 3.354-44.236 14.417-60 30.52v-43.729h-30v122.143l-60.937.042v-50.052h-30v58.849l-59.937 59.938v261.213h511.874v-261.213zm-21.217 21.21 29.941 29.941h-99.787v-29.99zm-174.845-110.059c36.219 0 66.522 25.808 73.491 60h-146.982c6.968-34.192 37.271-60 73.491-60zm-105 110.01v29.99h-99.662l29.942-29.941zm-45.438 269.99v-45.667h-30v45.667h-45.437v-210h120.875v210zm165.438 0h-30v-70h30zm30 0v-100h-90v100h-30v-290h150v290zm135.437 0v-45.667h-30v45.667h-45.438v-210h121v210z"/></g></svg>