<?xml version="1.0" encoding="iso-8859-1"?>
<!-- Generator: Adobe Illustrator 19.0.0, SVG Export Plug-In . SVG Version: 6.00 Build 0)  -->
<svg version="1.1" id="Capa_1" xmlns="http://www.w3.org/2000/svg" xmlns:xlink="http://www.w3.org/1999/xlink" x="0px" y="0px"
	 viewBox="0 0 427.763 427.763" style="enable-background:new 0 0 427.763 427.763;" xml:space="preserve">
<g>
	<g>
		<path d="M420.418,166.563l-54.5-55v-64.2c0-5.5-4.8-9.7-10.4-9.7h-78.3l-31.4-26.2c-18.5-15.3-45.3-15.3-63.8,0.1l-31.4,26.1
			h-79.3c-5.5,0-10.4,4.1-10.4,9.7v65.3l-53.5,54c-1.9,1.9-2.9,4.4-2.7,7.1h0.2v203.9c0,27.6,22.2,50.1,49.7,50.1h318.5
			c27.6,0,49.7-22.6,49.7-50.1v-204h0.2C423.318,171.063,422.318,168.463,420.418,166.563z M365.918,139.963l32.4,32.6l-32.4,24.1
			V139.963z M194.818,26.863c11.1-9.2,27.2-9.1,38.3,0.1l12.7,10.7h-63.9L194.818,26.863z M80.918,57.663h265v153.9l-113.9,84.8
			c-10.8,7.9-25.4,7.9-36.1,0l-115-85.6V57.663z M60.918,140.963v55l-31.4-23.4L60.918,140.963z M402.918,377.463
			c0.1,16.6-13.2,30.1-29.7,30.2h-318.6c-16.5-0.1-29.8-13.6-29.7-30.1v-184l159.2,118.9c17.7,13.1,41.9,13.1,59.6,0l159.2-118.9
			V377.463z"/>
	</g>
</g>
<g>
	<g>
		<path d="M305.918,146.663c-6-28.7-26.7-47.3-53.5-47.3c-12.6,0-25.8,4.3-38.4,12.4c-12.9-8.3-25.9-12.4-38.5-12.4
			c-26.4,0-47.8,19.1-53.4,47.6c-4.1,21.5,1.1,44.8,14.6,65.5c15,22.9,39.6,41.8,71.2,54.4c1.9,0.8,4,1.2,6.1,1.1
			c2.2,0.1,4.3-0.3,6.3-1.1C289.918,238.363,312.918,185.963,305.918,146.663z M214.018,247.763c-58.1-23.8-78.2-65.8-72.2-97
			c3.8-19.4,16.7-31.4,33.7-31.4c10.3,0,21.2,4.3,32.6,12.7c3.6,2.6,8.4,2.6,12-0.1c10.7-8.1,22.2-12.6,32.2-12.6
			c17.1,0,30,11.9,33.7,31.1C292.018,181.463,272.118,223.463,214.018,247.763z"/>
	</g>
</g>
<g>
</g>
<g>
</g>
<g>
</g>
<g>
</g>
<g>
</g>
<g>
</g>
<g>
</g>
<g>
</g>
<g>
</g>
<g>
</g>
<g>
</g>
<g>
</g>
<g>
</g>
<g>
</g>
<g>
</g>
</svg>
